<svg xmlns="http://www.w3.org/2000/svg" width="209" height="38" viewBox="0 0 209 38" fill="none"><path d="M14.5622 19.9661L11.1489 31.3119C11.0593 31.6083 11.0403 31.9216 11.0934 32.2267C11.1465 32.5318 11.2703 32.8202 11.4548 33.0689C11.6394 33.3175 11.8796 33.5196 12.1562 33.6588C12.4328 33.798 12.7381 33.8706 13.0478 33.8707H16.7127C21.1306 33.8707 25.3677 32.1156 28.4916 28.9916C31.6156 25.8677 33.3707 21.6306 33.3707 17.2127C33.3707 12.7947 31.6156 8.55768 28.4916 5.4337C25.3677 2.30972 21.1306 0.554688 16.7127 0.554688H4.10406C3.0301 0.554688 2.00013 0.981317 1.24072 1.74072C0.481317 2.50013 0.0546875 3.5301 0.0546875 4.60406V24.343C0.0554116 24.5844 0.119405 24.8215 0.240288 25.0305C0.361172 25.2395 0.534723 25.4132 0.743645 25.5342C0.952567 25.6552 1.18956 25.7194 1.43101 25.7203C1.67245 25.7212 1.90991 25.6588 2.11973 25.5393L13.4181 19.0688C13.5543 18.9892 13.7114 18.9525 13.8687 18.9636C14.0261 18.9747 14.1765 19.0331 14.3001 19.1311C14.4238 19.2291 14.515 19.3621 14.5617 19.5128C14.6085 19.6635 14.6086 19.8248 14.5622 19.9756" fill="#48BC8F"></path><path d="M117.51 6.84797C117.757 7.6846 118.027 8.63467 118.325 9.684C118.623 10.7333 118.941 11.8299 119.272 12.9596C119.604 14.0893 119.954 15.2143 120.305 16.3392C120.655 17.4642 120.991 18.5135 121.318 19.4778C121.588 18.4284 121.858 17.294 122.138 16.0603C122.417 14.8267 122.677 13.5646 122.928 12.2506C123.18 10.9366 123.402 9.632 123.653 8.33216C123.904 7.03231 124.127 5.775 124.321 4.55078H129.317C128.594 8.12103 127.762 11.7448 126.822 15.4222C125.881 19.0996 124.864 22.5832 123.772 25.873H119.376C118.657 23.9067 117.959 21.8427 117.283 19.681C116.607 17.5193 115.941 15.3513 115.284 13.177C114.625 15.3513 113.968 17.5193 113.314 19.681C112.661 21.8427 111.971 23.9067 111.245 25.873H106.868C105.773 22.5738 104.758 19.0902 103.823 15.4222C102.889 11.7543 102.058 8.13048 101.332 4.55078H106.542C106.745 5.76082 106.973 7.0134 107.224 8.33216C107.475 9.65091 107.73 10.9413 107.996 12.2506C108.261 13.5599 108.54 14.8314 108.815 16.0603C109.09 17.2893 109.379 18.4237 109.668 19.4778C110.037 18.4725 110.397 17.4059 110.747 16.2778C111.098 15.1528 111.439 14.0231 111.766 12.8982C112.092 11.7732 112.4 10.6813 112.675 9.63673C112.95 8.59212 113.205 7.66096 113.433 6.84324L117.51 6.84797Z" fill="#153860"></path><path d="M135.235 9.8973C136.44 9.87043 137.642 10.0335 138.794 10.3802C139.657 10.642 140.441 11.1045 141.078 11.7276C141.66 12.332 142.077 13.0672 142.293 13.8669C142.54 14.7776 142.659 15.7165 142.646 16.6582V26.389C141.955 26.5339 140.999 26.7077 139.764 26.9057C138.282 27.1227 136.784 27.2229 135.285 27.2051C134.281 27.2128 133.28 27.1173 132.298 26.9202C131.472 26.7591 130.686 26.4442 129.983 25.993C129.341 25.5713 128.825 24.9913 128.49 24.3124C128.129 23.5129 127.959 22.6446 127.992 21.7723C127.964 20.9176 128.17 20.0711 128.59 19.319C128.978 18.6648 129.529 18.1153 130.192 17.7206C130.902 17.307 131.68 17.0146 132.492 16.8562C133.376 16.6763 134.277 16.5873 135.18 16.5906C135.737 16.5865 136.294 16.6122 136.848 16.6678C137.246 16.7056 137.64 16.7734 138.027 16.8706V16.4312C138.046 16.0771 137.99 15.723 137.863 15.3908C137.735 15.0585 137.539 14.7552 137.286 14.4995C136.788 14.0166 135.927 13.78 134.692 13.78C133.881 13.7795 133.071 13.8376 132.268 13.9538C131.561 14.0448 130.865 14.2067 130.192 14.4367L129.58 10.67C129.859 10.5879 130.212 10.4961 130.631 10.3995C131.049 10.303 131.512 10.2257 132.009 10.1532C132.507 10.0808 133.03 10.0132 133.577 9.96008C134.125 9.90696 134.682 9.88281 135.245 9.88281M135.633 23.5784C136.106 23.5784 136.559 23.5784 136.992 23.5446C137.339 23.534 137.684 23.5033 138.027 23.4528V19.9179C137.833 19.8744 137.529 19.8358 137.156 19.7923C136.376 19.699 135.587 19.699 134.807 19.7923C134.442 19.836 134.087 19.9371 133.756 20.0917C133.467 20.2235 133.22 20.4308 133.045 20.6905C132.863 20.9702 132.772 21.2969 132.786 21.6274C132.743 21.9276 132.788 22.2335 132.916 22.5101C133.043 22.7867 133.248 23.023 133.508 23.1921C134.155 23.5067 134.875 23.6531 135.598 23.617" fill="#153860"></path><path d="M62.6841 15.1865C62.721 16.7965 62.4302 18.3976 61.8287 19.8971C61.2966 21.1822 60.4573 22.3243 59.3807 23.2281C58.2527 24.1471 56.9386 24.8231 55.5245 25.212C53.866 25.6697 52.1486 25.8919 50.4253 25.8718C49.5605 25.8718 48.5586 25.8348 47.4102 25.7656C46.2751 25.6965 45.1461 25.5516 44.0312 25.332V5.06412C45.1728 4.85777 46.3267 4.72216 47.4858 4.65812C48.6862 4.59045 49.7164 4.55508 50.5765 4.552C52.2522 4.53303 53.9229 4.73478 55.5434 5.15178C56.9415 5.50853 58.2452 6.15354 59.3666 7.04338C60.4524 7.9288 61.2981 9.06179 61.8287 10.3422C62.4361 11.8818 62.7268 13.5233 62.6841 15.1727M48.8232 21.7887C49.0501 21.7887 49.2958 21.8256 49.6077 21.8348C49.9196 21.844 50.2599 21.8348 50.671 21.8348C53.0655 21.8348 54.8424 21.2442 56.0018 20.0631C57.1612 18.882 57.7393 17.2519 57.7362 15.1727C57.7362 12.995 57.1832 11.3449 56.0774 10.2222C54.9715 9.09954 53.2198 8.53975 50.8223 8.54283H49.8062C49.4612 8.54283 49.1304 8.57973 48.8232 8.61664V21.7887Z" fill="#153860"></path><path d="M70.6788 4.64493C70.6972 5.02147 70.6358 5.39761 70.4991 5.7464C70.3624 6.09519 70.1537 6.40799 69.888 6.66241C69.3707 7.1368 68.7066 7.39832 68.019 7.39832C67.3314 7.39832 66.6672 7.1368 66.15 6.66241C65.8837 6.40823 65.6743 6.09559 65.5368 5.74683C65.3993 5.39807 65.3371 5.0218 65.3546 4.64493C65.3367 4.26729 65.3988 3.8902 65.5363 3.5406C65.6738 3.191 65.8833 2.87754 66.15 2.62263C66.6672 2.14823 67.3314 1.88672 68.019 1.88672C68.7066 1.88672 69.3707 2.14823 69.888 2.62263C70.1541 2.87778 70.3629 3.19141 70.4997 3.54103C70.6364 3.89066 70.6976 4.26763 70.6788 4.64493ZM70.2604 25.8742H65.8051V9.40214H70.2604V25.8742Z" fill="#153860"></path><path d="M89.3199 24.6122C89.3199 27.2956 88.6526 29.2866 87.3179 30.5851C85.9831 31.8836 83.92 32.5345 81.1284 32.5377C80.1453 32.5356 79.1641 32.4473 78.1958 32.2738C77.2724 32.1104 76.3626 31.8746 75.4747 31.5686L76.2501 27.6682C76.9835 27.9636 77.7417 28.19 78.5154 28.3447C79.396 28.5209 80.2921 28.6045 81.1895 28.5941C82.496 28.5941 83.4171 28.3063 83.9576 27.721C84.2314 27.4182 84.4438 27.0631 84.5825 26.6761C84.7212 26.2891 84.7836 25.8779 84.7659 25.4662V24.8905C84.2817 25.1195 83.7742 25.2932 83.2526 25.4086C82.6948 25.5278 82.126 25.5857 81.556 25.5813C79.3378 25.5813 77.6365 24.9097 76.4522 23.5664C75.2679 22.2231 74.6773 20.3457 74.6804 17.9342C74.6663 16.8121 74.8527 15.6969 75.2303 14.6431C75.5771 13.6867 76.124 12.819 76.8329 12.1004C77.5701 11.3717 78.4514 10.8123 79.4177 10.4597C80.5267 10.0606 81.6962 9.86571 82.872 9.88399C83.4218 9.88399 83.9858 9.91277 84.5685 9.96075C85.1513 10.0087 85.7247 10.0807 86.2933 10.167C86.862 10.2534 87.4118 10.3493 87.9288 10.4597C88.4458 10.57 88.911 10.6948 89.3387 10.8195L89.3199 24.6122ZM79.3284 17.9342C79.3284 20.5344 80.3561 21.8345 82.4114 21.8345C82.8566 21.8379 83.2999 21.7749 83.7273 21.6474C84.0887 21.5429 84.4372 21.3965 84.7659 21.2108V13.7843C84.5403 13.7412 84.296 13.7076 83.9717 13.674C83.6474 13.6404 83.309 13.6308 82.9002 13.6308C82.389 13.593 81.8765 13.6839 81.4078 13.8955C80.9391 14.1072 80.5284 14.4331 80.2119 14.8446C79.5941 15.7479 79.2837 16.8333 79.3284 17.9342Z" fill="#153860"></path><path d="M98.6635 4.64493C98.681 5.0218 98.6187 5.39807 98.4812 5.74683C98.3437 6.09559 98.1344 6.40823 97.8681 6.66241C97.3508 7.1368 96.6866 7.39832 95.9991 7.39832C95.3115 7.39832 94.6473 7.1368 94.1301 6.66241C93.8644 6.40799 93.6557 6.09519 93.5189 5.7464C93.3822 5.39761 93.3209 5.02147 93.3392 4.64493C93.3205 4.26763 93.3817 3.89066 93.5184 3.54103C93.6551 3.19141 93.864 2.87778 94.1301 2.62263C94.6473 2.14823 95.3115 1.88672 95.9991 1.88672C96.6866 1.88672 97.3508 2.14823 97.8681 2.62263C98.1347 2.87754 98.3443 3.191 98.4818 3.5406C98.6193 3.8902 98.6813 4.26729 98.6635 4.64493ZM98.2451 25.8742H93.7852V9.40214H98.2451V25.8742Z" fill="#153860"></path><path d="M157.009 24.9735C157.404 25.2843 157.779 25.6219 158.132 25.9844C158.482 26.3443 158.798 26.7398 159.075 27.1653C159.358 27.616 159.58 28.1068 159.733 28.6233C159.894 29.1872 159.973 29.7739 159.967 30.3631C159.957 31.0488 159.836 31.7277 159.608 32.3702C159.352 33.1273 158.935 33.8123 158.389 34.3724C157.751 35.0387 156.992 35.5626 156.158 35.913C155.045 36.3593 153.86 36.5691 152.671 36.5302C151.58 36.5518 150.492 36.3877 149.45 36.0442C148.602 35.7587 147.819 35.2904 147.15 34.6689C146.549 34.0945 146.078 33.3855 145.77 32.5937C145.456 31.7642 145.299 30.8774 145.31 29.984C145.289 28.9351 145.544 27.9006 146.046 26.9952C146.675 25.9955 147.508 25.157 148.484 24.541M155.095 28.0498C154.712 27.4532 154.236 26.9291 153.687 26.4995C153.131 26.6891 152.611 26.898 152.119 27.1167C151.668 27.317 151.242 27.5731 150.849 27.8797C150.506 28.1406 150.215 28.471 149.993 28.8517C149.781 29.2471 149.673 29.695 149.68 30.1493C149.683 30.4811 149.748 30.809 149.871 31.1143C149.994 31.4195 150.173 31.6961 150.398 31.928C150.858 32.4528 151.636 32.7201 152.671 32.7201C153.143 32.7333 153.612 32.6456 154.051 32.4625C154.394 32.3183 154.707 32.1036 154.971 31.8308C155.395 31.3834 155.642 30.7821 155.661 30.1493C155.678 29.3968 155.479 28.6565 155.091 28.0255" fill="#153860"></path><path d="M161.28 18.5134C161.3 19.7183 161.119 20.918 160.743 22.0616C160.403 23.083 159.855 24.0212 159.136 24.8166C158.43 25.5791 157.57 26.1807 156.616 26.5811C155.57 27.0114 154.45 27.224 153.321 27.2061C152.203 27.2222 151.094 27.0096 150.059 26.5811C149.103 26.1832 148.244 25.5813 147.539 24.8166C146.816 24.0182 146.258 23.0815 145.899 22.0616C145.496 20.9235 145.297 19.7221 145.309 18.5134C145.296 17.3081 145.501 16.1105 145.913 14.9796C146.285 13.9695 146.854 13.0456 147.587 12.2632C148.3 11.5061 149.164 10.9098 150.121 10.5131C151.135 10.087 152.223 9.87276 153.321 9.88328C154.43 9.8714 155.529 10.0856 156.554 10.5131C157.506 10.9088 158.364 11.5055 159.069 12.2632C159.794 13.0461 160.352 13.9705 160.71 14.9796C161.115 16.1121 161.315 17.3092 161.299 18.5134M156.597 18.5134C156.662 17.3213 156.367 16.1374 155.751 15.1191C155.483 14.7216 155.119 14.3999 154.694 14.1845C154.269 13.969 153.796 13.8671 153.321 13.8882C152.844 13.8673 152.369 13.9693 151.942 14.1846C151.514 14.3999 151.148 14.7214 150.877 15.1191C150.25 16.1334 149.947 17.3189 150.012 18.5134C149.95 19.7183 150.252 20.9136 150.877 21.9414C151.143 22.3463 151.508 22.6752 151.936 22.8966C152.364 23.1181 152.841 23.2246 153.321 23.2059C153.799 23.2253 154.275 23.1191 154.701 22.8975C155.126 22.6758 155.488 22.3465 155.751 21.9414C156.364 20.9097 156.659 19.7159 156.597 18.5134Z" fill="#153860"></path><path d="M162.635 7.21606C162.635 7.7432 162.479 8.2585 162.186 8.69681C161.893 9.13511 161.477 9.47673 160.99 9.67845C160.503 9.88018 159.967 9.93296 159.45 9.83012C158.933 9.72728 158.458 9.47344 158.085 9.10069C157.713 8.72795 157.459 8.25304 157.356 7.73603C157.253 7.21902 157.306 6.68312 157.508 6.1961C157.709 5.70909 158.051 5.29283 158.489 4.99996C158.928 4.7071 159.443 4.55078 159.97 4.55078C160.32 4.55078 160.667 4.61972 160.99 4.75366C161.313 4.88761 161.607 5.08393 161.855 5.33142C162.102 5.57892 162.298 5.87273 162.432 6.1961C162.566 6.51947 162.635 6.86605 162.635 7.21606Z" fill="#153860"></path><path d="M178.624 18.5132C178.64 19.7194 178.451 20.9195 178.067 22.0615C177.728 23.0836 177.18 24.0222 176.46 24.8165C175.755 25.5813 174.895 26.1832 173.939 26.581C172.893 27.0114 171.772 27.224 170.643 27.2061C169.526 27.2222 168.418 27.0096 167.385 26.581C166.427 26.1844 165.565 25.5824 164.859 24.8165C164.137 24.0171 163.58 23.0806 163.219 22.0615C162.817 20.9231 162.619 19.7217 162.634 18.5132C162.619 17.3082 162.822 16.1106 163.233 14.9794C163.606 13.9701 164.175 13.0465 164.907 12.2629C165.621 11.5058 166.485 10.9095 167.442 10.5128C169.507 9.67283 171.812 9.67283 173.877 10.5128C174.831 10.9072 175.691 11.504 176.398 12.2629C177.122 13.0458 177.681 13.9702 178.039 14.9794C178.44 16.1127 178.639 17.3094 178.624 18.5132ZM173.925 18.5132C173.988 17.3206 173.691 16.1366 173.073 15.1188C172.806 14.7203 172.443 14.3978 172.017 14.1823C171.592 13.9668 171.118 13.8654 170.643 13.888C170.164 13.8645 169.687 13.9652 169.257 14.1807C168.828 14.3961 168.46 14.7191 168.189 15.1188C167.559 16.1321 167.256 17.3184 167.323 18.5132C167.26 19.7184 167.562 20.9143 168.189 21.9413C168.454 22.3461 168.817 22.6751 169.245 22.8966C169.672 23.1181 170.149 23.2246 170.629 23.2058C171.107 23.2262 171.583 23.1203 172.009 22.8986C172.435 22.6769 172.797 22.3471 173.059 21.9413C173.675 20.91 173.971 19.7162 173.91 18.5132" fill="#153860"></path><path d="M179.961 10.7778C181.003 10.5182 182.061 10.3153 183.129 10.1701C184.474 9.97812 185.834 9.8834 187.196 9.88677C188.421 9.85352 189.641 10.0302 190.796 10.4077C191.682 10.7128 192.466 11.2264 193.07 11.8972C193.645 12.5589 194.054 13.3298 194.267 14.1544C194.511 15.1096 194.63 16.0884 194.619 17.0696V25.8745H189.808V17.5859C189.808 16.1542 189.604 15.1429 189.197 14.5519C188.79 13.961 188.025 13.6564 186.903 13.6381C186.555 13.6381 186.193 13.6381 185.805 13.6838C185.418 13.7295 185.071 13.7478 184.773 13.7889V25.8516H179.961V10.7778Z" fill="#153860"></path><path d="M206.722 11.2969C206.729 12.3155 206.57 13.2228 206.244 14.0186C205.918 14.8145 205.473 15.4928 204.908 16.0534C204.355 16.6021 203.707 17.027 202.962 17.3283C202.23 17.6177 201.455 17.7652 200.638 17.7708C199.833 17.7764 199.056 17.6396 198.308 17.3605C197.571 17.0694 196.917 16.6535 196.344 16.1125C195.784 15.5597 195.329 14.8877 194.98 14.0965C194.643 13.3052 194.47 12.4002 194.463 11.3816C194.456 10.3748 194.615 9.47346 194.942 8.67759C195.279 7.86978 195.725 7.19154 196.278 6.64284C196.842 6.08222 197.491 5.65724 198.223 5.3679C198.967 5.06663 199.742 4.91321 200.547 4.90764C201.365 4.902 202.141 5.04469 202.878 5.33573C203.626 5.61484 204.281 6.03082 204.841 6.58367C205.414 7.12459 205.868 7.79662 206.206 8.59976C206.543 9.39105 206.715 10.2901 206.722 11.2969ZM205.177 11.3076C205.171 10.5613 205.054 9.88698 204.825 9.28447C204.595 8.67011 204.272 8.14524 203.854 7.70985C203.448 7.27439 202.966 6.94013 202.408 6.70709C201.849 6.47405 201.233 6.35986 200.558 6.36452C199.882 6.36919 199.267 6.49189 198.712 6.73262C198.157 6.97336 197.68 7.31425 197.28 7.75528C196.881 8.19631 196.571 8.72556 196.35 9.34303C196.129 9.94865 196.021 10.6246 196.027 11.3708C196.032 12.117 196.149 12.7973 196.379 13.4116C196.608 14.026 196.926 14.5509 197.331 14.9864C197.737 15.4218 198.219 15.7561 198.778 15.9891C199.336 16.2222 199.953 16.3364 200.628 16.3317C201.303 16.327 201.918 16.2043 202.473 15.9636C203.028 15.7229 203.505 15.382 203.905 14.9409C204.317 14.4998 204.633 13.9705 204.853 13.3531C205.074 12.7356 205.182 12.0538 205.177 11.3076ZM202.037 14.6163C201.797 14.1204 201.557 13.672 201.317 13.2709C201.077 12.858 200.85 12.516 200.635 12.2451L199.675 12.2517L199.692 14.6325L198.2 14.6428L198.154 8.1579C198.52 8.0606 198.881 7.99296 199.236 7.95497C199.591 7.91698 199.905 7.89705 200.177 7.89517C201.161 7.88837 201.902 8.06685 202.402 8.43059C202.914 8.79425 203.173 9.34919 203.178 10.0954C203.181 10.4981 203.083 10.8541 202.883 11.1635C202.696 11.4609 202.419 11.6938 202.053 11.8622C202.293 12.204 202.55 12.599 202.826 13.0473C203.101 13.4955 203.371 14.0148 203.636 14.6052L202.037 14.6163ZM199.667 11.0436L200.164 11.0401C200.626 11.0369 200.993 10.9752 201.264 10.8549C201.536 10.7227 201.67 10.4671 201.668 10.0881C201.665 9.75641 201.533 9.52634 201.272 9.39785C201.022 9.25744 200.702 9.18858 200.311 9.19128C200.204 9.19202 200.098 9.19276 199.991 9.19349C199.896 9.19415 199.784 9.20677 199.654 9.23136L199.667 11.0436Z" fill="#153860"></path></svg>